<svg xmlns="http://www.w3.org/2000/svg" viewBox="0 0 1440 900" font-family="ui-monospace,SFMono-Regular,Menlo,Consolas,monospace">
  <defs>
    <linearGradient id="tsky" x1="0" y1="0" x2="0" y2="1">
      <stop offset="0" stop-color="#0c142b"/>
      <stop offset="1" stop-color="#070b18"/>
    </linearGradient>
    <pattern id="tgrid" width="34" height="34" patternUnits="userSpaceOnUse">
      <path d="M34 0H0V34" fill="none" stroke="#14203d" stroke-width="1"/>
    </pattern>
    <marker id="tflow" viewBox="0 0 12 12" refX="9" refY="6" markerWidth="8" markerHeight="8" orient="auto-start-reverse">
      <path d="M0 0 L12 6 L0 12 L3.5 6 Z" fill="#2dd4bf"/>
    </marker>
    <marker id="tflowDim" viewBox="0 0 12 12" refX="9" refY="6" markerWidth="8" markerHeight="8" orient="auto-start-reverse">
      <path d="M0 0 L12 6 L0 12 L3.5 6 Z" fill="#475569"/>
    </marker>
  </defs>

  <rect width="1440" height="900" fill="url(#tsky)"/>
  <rect width="1440" height="900" fill="url(#tgrid)"/>
  <rect x="0" y="0" width="1440" height="4" fill="#2dd4bf"/>

  <!-- header -->
  <text x="56" y="58" fill="#f1f5f9" font-size="32" font-weight="700" letter-spacing="1">서버-브레인 토폴로지</text>
  <text x="58" y="84" fill="#5b6b8c" font-size="13.5">plane map — ingress lane · ledger/state-authority · transcript pipeline · brain query · graph-memory · GC safety</text>

  <!-- legend -->
  <g font-size="11">
    <rect x="1066" y="38" width="318" height="58" rx="9" fill="#101a33" stroke="#1f2d4a"/>
    <text x="1084" y="60" fill="#5b6b8c" font-size="10.5" font-weight="700" letter-spacing="1">EDGE · NODE</text>
    <line x1="1084" y1="76" x2="1118" y2="76" stroke="#2dd4bf" stroke-width="2.2"/>
    <text x="1126" y="80" fill="#9fb3d1">solid = live default</text>
    <line x1="1262" y1="76" x2="1296" y2="76" stroke="#475569" stroke-width="2.2" stroke-dasharray="6 5"/>
    <text x="1304" y="80" fill="#9fb3d1" font-size="10.5">dashed = out-of-repo</text>
    <text x="1126" y="98" fill="#64748b" font-size="10">dimmed = gated / off-by-default</text>
  </g>

  <!-- ============================================================= -->
  <!-- DENDRITE — out-of-repo client (dashed/dimmed)                 -->
  <!-- ============================================================= -->
  <g opacity="0.62">
    <rect x="40" y="150" width="236" height="298" rx="14" fill="none" stroke="#64748b" stroke-width="1.4" stroke-dasharray="7 6"/>
    <rect x="52" y="138" width="208" height="24" rx="6" fill="#0c142b"/>
    <text x="68" y="155" fill="#94a3b8" font-size="11" font-weight="700">dendrite · out-of-repo / client</text>

    <g>
      <rect x="60" y="178" width="196" height="56" rx="10" fill="#0e1730" stroke="#475569" stroke-width="1.1" stroke-dasharray="5 4"/>
      <rect x="60" y="178" width="4" height="56" rx="2" fill="#818cf8"/>
      <text x="78" y="202" fill="#cbd5e1" font-size="12" font-weight="600">Mac thin-client</text>
      <text x="78" y="222" fill="#64748b" font-size="10">provider hook</text>
    </g>
    <g>
      <rect x="60" y="246" width="196" height="48" rx="10" fill="#0e1730" stroke="#475569" stroke-width="1.1" stroke-dasharray="5 4"/>
      <text x="78" y="270" fill="#cbd5e1" font-size="11.5">locator capture</text>
      <text x="78" y="286" fill="#64748b" font-size="10">session · cursor</text>
    </g>
    <g>
      <rect x="60" y="306" width="196" height="48" rx="10" fill="#0e1730" stroke="#475569" stroke-width="1.1" stroke-dasharray="5 4"/>
      <text x="78" y="330" fill="#cbd5e1" font-size="11.5">spool / outbox</text>
      <text x="78" y="346" fill="#64748b" font-size="10">at-least-once</text>
    </g>
    <g>
      <rect x="60" y="366" width="196" height="48" rx="10" fill="#0e1730" stroke="#475569" stroke-width="1.1" stroke-dasharray="5 4"/>
      <text x="78" y="390" fill="#cbd5e1" font-size="11.5">POST :18080</text>
      <text x="78" y="406" fill="#64748b" font-size="10">→ ingress-api</text>
    </g>
    <text x="158" y="436" fill="#475569" font-size="10" text-anchor="middle">dendrite repo가 소유 · neurons 밖</text>
  </g>

  <!-- dashed edge dendrite -> ingress -->
  <path d="M276 390 H312" fill="none" stroke="#475569" stroke-width="2" stroke-dasharray="6 5" marker-end="url(#tflowDim)"/>

  <!-- ============================================================= -->
  <!-- INGRESS LANE                                                  -->
  <!-- ============================================================= -->
  <text x="316" y="128" fill="#5b6b8c" font-size="11" font-weight="700" letter-spacing="1.5">INGRESS LANE</text>
  <rect x="312" y="138" width="784" height="318" rx="16" fill="none" stroke="#2dd4bf" stroke-width="1.2" stroke-dasharray="3 5" opacity="0.4"/>

  <!-- ingress-api -->
  <g>
    <rect x="328" y="158" width="180" height="172" rx="13" fill="#111d3a" stroke="#2dd4bf" stroke-width="1.3"/>
    <rect x="328" y="158" width="180" height="34" rx="13" fill="#15294a"/>
    <rect x="328" y="180" width="180" height="12" fill="#15294a"/>
    <circle cx="348" cy="175" r="5" fill="#2dd4bf"/>
    <text x="362" y="179" fill="#7af0e0" font-size="12.5" font-weight="700">ingress-api</text>
    <g font-size="10.5" fill="#9fb3d1">
      <text x="344" y="216">validate</text>
      <text x="344" y="236">redact</text>
      <text x="344" y="256">idempotency</text>
    </g>
    <line x1="344" y1="270" x2="492" y2="270" stroke="#1f2d4a"/>
    <text x="344" y="292" fill="#5b6b8c" font-size="10">@Profile(api)</text>
    <text x="344" y="310" fill="#5b6b8c" font-size="10">202 queued · 400 거부</text>
  </g>

  <!-- NATS -->
  <g>
    <rect x="540" y="158" width="180" height="172" rx="13" fill="#111d3a" stroke="#22d3ee" stroke-width="1.3"/>
    <rect x="540" y="158" width="180" height="34" rx="13" fill="#10324a"/>
    <rect x="540" y="180" width="180" height="12" fill="#10324a"/>
    <circle cx="560" cy="175" r="5" fill="#22d3ee"/>
    <text x="574" y="179" fill="#7fe7f7" font-size="12.5" font-weight="700">NATS JetStream</text>
    <g font-size="10.5" fill="#9fb3d1">
      <text x="556" y="216">WorkQueue 정책</text>
      <text x="556" y="236">RAG_INGRESS_QUEUE</text>
      <text x="556" y="256">durable pull · ack</text>
    </g>
    <line x1="556" y1="270" x2="704" y2="270" stroke="#1f2d4a"/>
    <text x="556" y="292" fill="#5b6b8c" font-size="10">explicit ack · max 5</text>
    <text x="556" y="310" fill="#5b6b8c" font-size="10">redelivery · dead-letter</text>
  </g>

  <!-- worker (python live delivery) -->
  <g>
    <rect x="752" y="158" width="184" height="172" rx="13" fill="#111d3a" stroke="#34d399" stroke-width="1.3"/>
    <rect x="752" y="158" width="184" height="34" rx="13" fill="#123a31"/>
    <rect x="752" y="180" width="184" height="12" fill="#123a31"/>
    <circle cx="772" cy="175" r="5" fill="#34d399"/>
    <text x="786" y="179" fill="#86efc4" font-size="12" font-weight="700">ingress-worker-py</text>
    <g font-size="10.5" fill="#9fb3d1">
      <text x="768" y="216">shadow_worker (live)</text>
      <text x="768" y="236">pressure gate</text>
      <text x="768" y="256">deliver()</text>
    </g>
    <line x1="768" y1="270" x2="920" y2="270" stroke="#1f2d4a"/>
    <text x="768" y="292" fill="#fbbf24" font-size="10">shadow default · delivery gated</text>
    <text x="768" y="310" fill="#5b6b8c" font-size="10">fail-closed 기본값</text>
  </g>

  <!-- retired java worker note -->
  <g opacity="0.5">
    <rect x="752" y="346" width="184" height="32" rx="8" fill="#0e1730" stroke="#475569" stroke-width="1" stroke-dasharray="4 4"/>
    <text x="844" y="366" fill="#64748b" font-size="10" text-anchor="middle">Java worker — 은퇴 (retired)</text>
  </g>

  <!-- selectable backend -->
  <g>
    <rect x="968" y="150" width="112" height="226" rx="13" fill="none" stroke="#f97316" stroke-width="1.3" stroke-dasharray="6 5" opacity="0.7"/>
    <text x="1024" y="170" fill="#fb923c" font-size="10" font-weight="700" text-anchor="middle">selectable</text>
    <text x="1024" y="183" fill="#fb923c" font-size="10" font-weight="700" text-anchor="middle">backend</text>
    <g>
      <rect x="982" y="198" width="84" height="62" rx="10" fill="#1c1626" stroke="#f97316" stroke-width="1.3"/>
      <circle cx="1000" cy="218" r="4.5" fill="#f97316"/>
      <text x="1012" y="222" fill="#fdba74" font-size="11" font-weight="700">RetiredIndexBridge</text>
      <text x="996" y="244" fill="#cbb89f" font-size="9.5">default</text>
    </g>
    <g>
      <rect x="982" y="272" width="84" height="62" rx="10" fill="#10212e" stroke="#38bdf8" stroke-width="1.2"/>
      <circle cx="1000" cy="292" r="4.5" fill="#38bdf8"/>
      <text x="1012" y="296" fill="#7dd3fc" font-size="11" font-weight="700">CouchDB</text>
      <text x="996" y="318" fill="#8fb6cc" font-size="9.5">alt</text>
    </g>
  </g>

  <!-- ingress flow edges -->
  <g fill="none" stroke="#2dd4bf" stroke-width="2" marker-end="url(#tflow)">
    <path d="M508 244 H536"/>
    <path d="M720 244 H748"/>
  </g>
  <path d="M936 244 H964" fill="none" stroke="#f97316" stroke-width="2" marker-end="url(#tflow)"/>

  <!-- ============================================================= -->
  <!-- LEDGER / STATE-AUTHORITY                                      -->
  <!-- ============================================================= -->
  <text x="316" y="500" fill="#5b6b8c" font-size="11" font-weight="700" letter-spacing="1.5">LEDGER · STATE-AUTHORITY</text>
  <g>
    <rect x="312" y="510" width="384" height="178" rx="14" fill="#111d3a" stroke="#818cf8" stroke-width="1.4"/>
    <rect x="312" y="510" width="384" height="34" rx="14" fill="#1a2347"/>
    <rect x="312" y="532" width="384" height="12" fill="#1a2347"/>
    <circle cx="332" cy="527" r="5" fill="#818cf8"/>
    <text x="346" y="531" fill="#c7d2fe" font-size="12.5" font-weight="700">ledger — 권위 상태표</text>

    <!-- engine seam -->
    <g>
      <rect x="328" y="556" width="166" height="64" rx="10" fill="#161f3d" stroke="#34406a"/>
      <text x="344" y="578" fill="#dbe4f3" font-size="11" font-weight="600">SQLite</text>
      <text x="344" y="596" fill="#7c8cae" font-size="9.5">code default</text>
      <text x="344" y="612" fill="#64748b" font-size="9">repo 기본 엔진</text>
    </g>
    <text x="503" y="592" fill="#475569" font-size="14" text-anchor="middle">⇄</text>
    <g opacity="0.72">
      <rect x="514" y="556" width="166" height="64" rx="10" fill="#0e1730" stroke="#475569" stroke-width="1.2" stroke-dasharray="6 5"/>
      <text x="530" y="578" fill="#cbd5e1" font-size="11" font-weight="600">PostgreSQL</text>
      <text x="530" y="596" fill="#94a3b8" font-size="9.5">live · out-of-repo</text>
      <text x="530" y="612" fill="#64748b" font-size="9">loopback</text>
    </g>

    <!-- two axes note -->
    <g font-size="10">
      <rect x="328" y="634" width="352" height="40" rx="8" fill="#0f1726"/>
      <text x="344" y="652" fill="#9fb3d1">두 축 분리 — status (수명주기)</text>
      <text x="344" y="668" fill="#9fb3d1">vs authorization_status (recall/promote 권한)</text>
    </g>
  </g>

  <!-- ============================================================= -->
  <!-- COUCHDB TRANSCRIPT PIPELINE                                   -->
  <!-- ============================================================= -->
  <text x="724" y="500" fill="#5b6b8c" font-size="11" font-weight="700" letter-spacing="1.5">COUCHDB TRANSCRIPT PIPELINE</text>
  <g>
    <rect x="720" y="510" width="376" height="178" rx="14" fill="#10212e" stroke="#38bdf8" stroke-width="1.3"/>
    <rect x="720" y="510" width="376" height="34" rx="14" fill="#0e2f3a"/>
    <rect x="720" y="532" width="376" height="12" fill="#0e2f3a"/>
    <circle cx="740" cy="527" r="5" fill="#38bdf8"/>
    <text x="754" y="531" fill="#7dd3fc" font-size="12.5" font-weight="700">transcript pipeline</text>

    <g>
      <rect x="736" y="556" width="344" height="38" rx="9" fill="#0f1c26" stroke="#1f3a4a"/>
      <text x="752" y="574" fill="#bfe9f2" font-size="11" font-weight="600">CouchDB transcript source</text>
      <text x="752" y="588" fill="#5b8a98" font-size="9.5">6 doc families</text>
    </g>
    <path d="M908 600 V612" fill="none" stroke="#22d3ee" stroke-width="1.8" marker-end="url(#tflow)"/>
    <g>
      <rect x="736" y="616" width="344" height="38" rx="9" fill="#0f1c26" stroke="#1f3a4a"/>
      <text x="752" y="634" fill="#bfe9f2" font-size="11" font-weight="600">builder cron</text>
      <text x="752" y="648" fill="#5b8a98" font-size="9.5">materialize + project · fail-closed</text>
    </g>
    <path d="M908 658 V668" fill="none" stroke="#22d3ee" stroke-width="1.8" marker-end="url(#tflow)"/>
    <g>
      <rect x="736" y="670" width="344" height="12" rx="6" fill="#0e2f3a" opacity="0"/>
      <text x="752" y="680" fill="#34d399" font-size="10.5" font-weight="600">→ RetiredIndexBridge session-memory (recall)</text>
    </g>
  </g>

  <!-- ============================================================= -->
  <!-- BRAIN QUERY / MCP READ SURFACE                                -->
  <!-- ============================================================= -->
  <text x="1124" y="128" fill="#5b6b8c" font-size="11" font-weight="700" letter-spacing="1.5">BRAIN QUERY · MCP read</text>
  <g>
    <rect x="1120" y="138" width="280" height="318" rx="14" fill="#111d3a" stroke="#2dd4bf" stroke-width="1.3"/>
    <rect x="1120" y="138" width="280" height="34" rx="14" fill="#15294a"/>
    <rect x="1120" y="160" width="280" height="12" fill="#15294a"/>
    <circle cx="1140" cy="155" r="5" fill="#2dd4bf"/>
    <text x="1154" y="159" fill="#7af0e0" font-size="12.5" font-weight="700">brain read surface</text>

    <g font-size="11" fill="#9fb3d1">
      <text x="1136" y="196">brain.query</text>
      <text x="1136" y="216">brain.resolve</text>
      <text x="1136" y="236">ContextPack</text>
    </g>
    <line x1="1136" y1="250" x2="1384" y2="250" stroke="#1f2d4a"/>

    <!-- canonical -->
    <g>
      <rect x="1136" y="262" width="248" height="52" rx="10" fill="#161f3d" stroke="#2dd4bf" stroke-width="1.2"/>
      <text x="1152" y="284" fill="#dbe4f3" font-size="11.5" font-weight="600">MemoryCard</text>
      <text x="1152" y="302" fill="#7af0e0" font-size="9.5">canonical · from ledger ✔</text>
    </g>
    <!-- mirror -->
    <g opacity="0.62">
      <rect x="1136" y="324" width="248" height="56" rx="10" fill="#0e1730" stroke="#475569" stroke-width="1.1" stroke-dasharray="5 4"/>
      <text x="1152" y="345" fill="#cbd5e1" font-size="11">RetiredIndexBridge native-memory</text>
      <text x="1152" y="361" fill="#cbd5e1" font-size="11">+ graph</text>
      <text x="1152" y="375" fill="#64748b" font-size="9.5">mirror · non-authoritative</text>
    </g>
    <text x="1136" y="402" fill="#5b6b8c" font-size="9.5">indexed ≠ authorized — 권위는 ledger</text>
    <line x1="1136" y1="414" x2="1384" y2="414" stroke="#1f2d4a"/>
    <text x="1136" y="436" fill="#5b6b8c" font-size="9.5">recall/product surface는 canonical만 신뢰</text>
  </g>

  <!-- ledger -> brain (authority) edge -->
  <path d="M696 552 C880 552 880 288 1134 288" fill="none" stroke="#2dd4bf" stroke-width="1.8" marker-end="url(#tflow)" opacity="0.85"/>
  <text x="900" y="372" fill="#7c8cae" font-size="10">canonical 공급 (authority)</text>

  <!-- ============================================================= -->
  <!-- GRAPH-MEMORY (off by default, dual-gated)                     -->
  <!-- ============================================================= -->
  <text x="316" y="728" fill="#5b6b8c" font-size="11" font-weight="700" letter-spacing="1.5">GRAPH-MEMORY</text>
  <g opacity="0.55">
    <rect x="312" y="738" width="468" height="118" rx="14" fill="#0e1730" stroke="#475569" stroke-width="1.3" stroke-dasharray="7 6"/>
    <circle cx="336" cy="766" r="5" fill="#818cf8"/>
    <text x="350" y="770" fill="#cbd5e1" font-size="12.5" font-weight="700">Graphiti / Neo4j derived index</text>
    <g font-size="10" fill="#94a3b8">
      <text x="332" y="800">파생 인덱스 — authority = derived_index</text>
      <text x="332" y="820">ledger에서 파생 · 권위 원천 아님</text>
      <text x="332" y="840">graph-augmented recall (선택)</text>
    </g>
  </g>
  <!-- prominent OFF badge (full opacity, sits on dimmed group) -->
  <g>
    <rect x="586" y="752" width="180" height="30" rx="8" fill="#2a1410" stroke="#f97316" stroke-width="1.4"/>
    <circle cx="606" cy="767" r="5" fill="#f97316"/>
    <text x="618" y="771" fill="#fdba74" font-size="11" font-weight="700">OFF by default · dual-gated</text>
  </g>
  <!-- dashed derive edge ledger -> graph -->
  <path d="M504 688 V736" fill="none" stroke="#475569" stroke-width="1.8" stroke-dasharray="6 5" marker-end="url(#tflowDim)"/>
  <text x="514" y="716" fill="#475569" font-size="10">derive (gated)</text>

  <!-- ============================================================= -->
  <!-- GC SAFETY lane (attached to ledger/storage)                   -->
  <!-- ============================================================= -->
  <g>
    <rect x="804" y="738" width="292" height="118" rx="14" fill="#1c1410" stroke="#f97316" stroke-width="1.2" stroke-dasharray="4 4" opacity="0.85"/>
    <circle cx="828" cy="766" r="5" fill="#f97316"/>
    <text x="842" y="770" fill="#fdba74" font-size="12" font-weight="700">GC SAFETY</text>
    <g font-size="10.3" fill="#cbb89f">
      <text x="822" y="798">fail-closed GC</text>
      <text x="822" y="818">quarantine · repair</text>
    </g>
    <g>
      <rect x="906" y="788" width="172" height="30" rx="8" fill="#2a1410" stroke="#f97316" stroke-width="1.3"/>
      <circle cx="926" cy="803" r="5" fill="#fbbf24"/>
      <text x="938" y="807" fill="#fcd34d" font-size="10" font-weight="700">dry-run · approval-gated</text>
    </g>
    <text x="822" y="845" fill="#5b6b8c" font-size="9">ledger/storage에 부착 — 삭제는 승인 후</text>
  </g>
  <!-- dashed attach edge ledger -> GC -->
  <path d="M696 640 C760 640 800 720 880 736" fill="none" stroke="#475569" stroke-width="1.6" stroke-dasharray="6 5" opacity="0.8"/>

  <!-- ledger -> couchdb pipeline (feeds source) subtle tie -->
  <path d="M696 600 H716" fill="none" stroke="#22d3ee" stroke-width="1.6" stroke-dasharray="2 4" opacity="0.5"/>

  <!-- worker backend -> couchdb pipeline subtle tie (CouchDB write path) -->
  <path d="M1024 376 C1024 430 900 470 900 506" fill="none" stroke="#38bdf8" stroke-width="1.5" stroke-dasharray="3 4" opacity="0.45" marker-end="url(#tflowDim)"/>

  <!-- bottom invariant strip -->
  <g>
    <rect x="1120" y="478" width="280" height="378" rx="14" fill="#0e1730" stroke="#1f2d4a"/>
    <text x="1142" y="506" fill="#5b6b8c" font-size="11" font-weight="700" letter-spacing="1.5">불변 경계</text>
    <line x1="1142" y1="516" x2="1378" y2="516" stroke="#1f2d4a"/>
    <g font-size="10.3" fill="#9fb3d1">
      <text x="1142" y="544">◆ 권위는 ledger 단일 — RetiredIndexBridge ·</text>
      <text x="1158" y="560">graph는 mirror/derived</text>
      <text x="1142" y="586">◆ indexed ≠ authorized</text>
      <text x="1142" y="612">◆ delivery는 gated — shadow가</text>
      <text x="1158" y="628">기본, OPEN일 때만 write</text>
      <text x="1142" y="654">◆ graph-memory는 dual-gate</text>
      <text x="1158" y="670">통과 시에만 ON</text>
      <text x="1142" y="696">◆ GC는 dry-run 기본 · 승인 후</text>
      <text x="1158" y="712">삭제</text>
      <text x="1142" y="738">◆ out-of-repo 경계는 loopback /</text>
      <text x="1158" y="754">host.docker.internal로 추상화</text>
      <text x="1142" y="780">◆ raw id · token · private path는</text>
      <text x="1158" y="796">public output에 없음</text>
    </g>
    <line x1="1142" y1="818" x2="1378" y2="818" stroke="#1f2d4a"/>
    <text x="1142" y="840" fill="#475569" font-size="9.5">logical role labels only · privacy-safe</text>
  </g>
</svg>
